%TF.GenerationSoftware,KiCad,Pcbnew,10.0.5*%
%TF.CreationDate,2026-09-30T02:45:46+05:30*%
%TF.ProjectId,pcb-design,7063622d-6465-4736-9967-6e2e6b696361,rev?*%
%TF.SameCoordinates,Original*%
%TF.FileFunction,Copper,L2,Bot*%
%TF.FilePolarity,Positive*%
%FSLAX46Y46*%
G04 Gerber Fmt 4.6, Leading zero omitted, Abs format (unit mm)*
G04 Created by KiCad (PCBNEW 10.0.5) date 2026-09-30 02:45:46*
%MOMM*%
%LPD*%
G01*
G04 APERTURE LIST*
G04 Aperture macros list*
%AMRoundRect*
0 Rectangle with rounded corners*
0 $1 Rounding radius*
0 $2 $3 $4 $5 $6 $7 $8 $9 X,Y pos of 4 corners*
0 Add a 4 corners polygon primitive as box body*
4,1,4,$2,$3,$4,$5,$6,$7,$8,$9,$2,$3,0*
0 Add four circle primitives for the rounded corners*
1,1,$1+$1,$2,$3*
1,1,$1+$1,$4,$5*
1,1,$1+$1,$6,$7*
1,1,$1+$1,$8,$9*
0 Add four rect primitives between the rounded corners*
20,1,$1+$1,$2,$3,$4,$5,0*
20,1,$1+$1,$4,$5,$6,$7,0*
20,1,$1+$1,$6,$7,$8,$9,0*
20,1,$1+$1,$8,$9,$2,$3,0*%
G04 Aperture macros list end*
%TA.AperFunction,ComponentPad*%
%ADD10C,2.300000*%
%TD*%
%TA.AperFunction,ComponentPad*%
%ADD11C,4.000000*%
%TD*%
%TA.AperFunction,ComponentPad*%
%ADD12RoundRect,0.250000X0.550000X-0.550000X0.550000X0.550000X-0.550000X0.550000X-0.550000X-0.550000X0*%
%TD*%
%TA.AperFunction,ComponentPad*%
%ADD13C,1.600000*%
%TD*%
%TA.AperFunction,ViaPad*%
%ADD14C,0.600000*%
%TD*%
%TA.AperFunction,Conductor*%
%ADD15C,0.200000*%
%TD*%
G04 APERTURE END LIST*
D10*
%TO.P,MX23,1,1_1*%
%TO.N,/Column 08*%
X36140000Y116890000D03*
%TO.P,MX23,2,2_2*%
%TO.N,Net-(D23-A)*%
X42490000Y119430000D03*
%TD*%
D11*
%TO.P,S5,*%
%TO.N,*%
X-55220000Y64040000D03*
X44792500Y64040000D03*
%TD*%
D10*
%TO.P,MX17,1,1_1*%
%TO.N,/Column 02*%
X-78190000Y116840000D03*
%TO.P,MX17,2,2_2*%
%TO.N,Net-(D17-A)*%
X-71840000Y119380000D03*
%TD*%
%TO.P,MX32,1,1_1*%
%TO.N,/Column 03*%
X-54260000Y97790000D03*
%TO.P,MX32,2,2_2*%
%TO.N,Net-(D32-A)*%
X-47910000Y100330000D03*
%TD*%
%TO.P,MX15,1,1_1*%
%TO.N,/Column 00*%
X-121080000Y116840000D03*
%TO.P,MX15,2,2_2*%
%TO.N,Net-(D15-A)*%
X-114730000Y119380000D03*
%TD*%
%TO.P,MX2,1,1_1*%
%TO.N,/Column 01*%
X-107110000Y135890000D03*
%TO.P,MX2,2,2_2*%
%TO.N,Net-(D2-A)*%
X-100760000Y138430000D03*
%TD*%
%TO.P,MX50,1,1_1*%
%TO.N,/Column 08*%
X50570000Y78740000D03*
%TO.P,MX50,2,2_2*%
%TO.N,Net-(D50-A)*%
X56920000Y81280000D03*
%TD*%
%TO.P,MX39,1,1_1*%
%TO.N,/Column 10*%
X79190000Y97790000D03*
%TO.P,MX39,2,2_2*%
%TO.N,Net-(D39-A)*%
X85540000Y100330000D03*
%TD*%
%TO.P,MX57,1,1_1*%
%TO.N,/Column 03*%
X-8850000Y59690000D03*
%TO.P,MX57,2,2_2*%
%TO.N,Net-(D57-A)*%
X-2500000Y62230000D03*
%TD*%
%TO.P,MX38,1,1_1*%
%TO.N,/Column 09*%
X60190000Y97790000D03*
%TO.P,MX38,2,2_2*%
%TO.N,Net-(D38-A)*%
X66540000Y100330000D03*
%TD*%
%TO.P,MX14,1,1_1*%
%TO.N,/Column 13*%
X131110000Y135890000D03*
%TO.P,MX14,2,2_2*%
%TO.N,Net-(D14-A)*%
X137460000Y138430000D03*
%TD*%
%TO.P,MX24,1,1_1*%
%TO.N,/Column 09*%
X55215000Y116840000D03*
%TO.P,MX24,2,2_2*%
%TO.N,Net-(D24-A)*%
X61565000Y119380000D03*
%TD*%
%TO.P,MX13,1,1_1*%
%TO.N,/Column 12*%
X102440000Y135890000D03*
%TO.P,MX13,2,2_2*%
%TO.N,Net-(D13-A)*%
X108790000Y138430000D03*
%TD*%
%TO.P,MX54,1,1_1*%
%TO.N,/Column 00*%
X-123270000Y59690000D03*
%TO.P,MX54,2,2_2*%
%TO.N,Net-(D54-A)*%
X-116920000Y62230000D03*
%TD*%
%TO.P,MX27,1,1_1*%
%TO.N,/Column 12*%
X112440000Y116815000D03*
%TO.P,MX27,2,2_2*%
%TO.N,Net-(D27-A)*%
X118790000Y119355000D03*
%TD*%
D11*
%TO.P,S1,*%
%TO.N,*%
X122973750Y140335000D03*
X146786250Y140335000D03*
%TD*%
D10*
%TO.P,MX42,1,1_1*%
%TO.N,/Column 00*%
X-113830000Y78740000D03*
%TO.P,MX42,2,2_2*%
%TO.N,Net-(D42-A)*%
X-107480000Y81280000D03*
%TD*%
%TO.P,MX46,1,1_1*%
%TO.N,/Column 04*%
X-25750000Y78740000D03*
%TO.P,MX46,2,2_2*%
%TO.N,Net-(D46-A)*%
X-19400000Y81280000D03*
%TD*%
%TO.P,MX67,1,1_1*%
%TO.N,/Column 08*%
X150680000Y59690000D03*
%TO.P,MX67,2,2_2*%
%TO.N,Net-(D64-A)*%
X157030000Y62230000D03*
%TD*%
%TO.P,MX19,1,1_1*%
%TO.N,/Column 04*%
X-40085000Y116790000D03*
%TO.P,MX19,2,2_2*%
%TO.N,Net-(D19-A)*%
X-33735000Y119330000D03*
%TD*%
%TO.P,MX58,1,1_1*%
%TO.N,/Column 04*%
X62415000Y59665000D03*
%TO.P,MX58,2,2_2*%
%TO.N,Net-(D58-A)*%
X68765000Y62205000D03*
%TD*%
%TO.P,MX41,1,1_1*%
%TO.N,/Column 13*%
X129250000Y97790000D03*
%TO.P,MX41,2,2_2*%
%TO.N,Net-(D41-A)*%
X135600000Y100330000D03*
%TD*%
%TO.P,MX29,1,1_1*%
%TO.N,/Column 00*%
X-118540000Y97790000D03*
%TO.P,MX29,2,2_2*%
%TO.N,Net-(D29-A)*%
X-112190000Y100330000D03*
%TD*%
%TO.P,MX40,1,1_1*%
%TO.N,/Column 11*%
X98330000Y97790000D03*
%TO.P,MX40,2,2_2*%
%TO.N,Net-(D40-A)*%
X104680000Y100330000D03*
%TD*%
%TO.P,MX9,1,1_1*%
%TO.N,/Column 08*%
X26240000Y135890000D03*
%TO.P,MX9,2,2_2*%
%TO.N,Net-(D9-A)*%
X32590000Y138430000D03*
%TD*%
%TO.P,MX11,1,1_1*%
%TO.N,/Column 10*%
X64340000Y135890000D03*
%TO.P,MX11,2,2_2*%
%TO.N,Net-(D11-A)*%
X70690000Y138430000D03*
%TD*%
%TO.P,MX63,1,1_1*%
%TO.N,/Column 13*%
X169680000Y78740000D03*
%TO.P,MX63,2,2_2*%
%TO.N,Net-(D63-A)*%
X176030000Y81280000D03*
%TD*%
%TO.P,MX18,1,1_1*%
%TO.N,/Column 03*%
X-59110000Y116815000D03*
%TO.P,MX18,2,2_2*%
%TO.N,Net-(D18-A)*%
X-52760000Y119355000D03*
%TD*%
D11*
%TO.P,S4,*%
%TO.N,*%
X121153750Y102235000D03*
X144966250Y102235000D03*
%TD*%
D10*
%TO.P,MX20,1,1_1*%
%TO.N,/Column 05*%
X-20985000Y116840000D03*
%TO.P,MX20,2,2_2*%
%TO.N,Net-(D20-A)*%
X-14635000Y119380000D03*
%TD*%
%TO.P,MX59,1,1_1*%
%TO.N,/Column 05*%
X86300000Y59665000D03*
%TO.P,MX59,2,2_2*%
%TO.N,Net-(D59-A)*%
X92650000Y62205000D03*
%TD*%
%TO.P,MX47,1,1_1*%
%TO.N,/Column 05*%
X-6710000Y78740000D03*
%TO.P,MX47,2,2_2*%
%TO.N,Net-(D47-A)*%
X-360000Y81280000D03*
%TD*%
%TO.P,MX52,1,1_1*%
%TO.N,/Column 10*%
X88810000Y78740000D03*
%TO.P,MX52,2,2_2*%
%TO.N,Net-(D52-A)*%
X95160000Y81280000D03*
%TD*%
%TO.P,MX22,1,1_1*%
%TO.N,/Column 07*%
X17190000Y116890000D03*
%TO.P,MX22,2,2_2*%
%TO.N,Net-(D22-A)*%
X23540000Y119430000D03*
%TD*%
%TO.P,MX7,1,1_1*%
%TO.N,/Column 06*%
X-11860000Y135890000D03*
%TO.P,MX7,2,2_2*%
%TO.N,Net-(D7-A)*%
X-5510000Y138430000D03*
%TD*%
%TO.P,MX49,1,1_1*%
%TO.N,/Column 07*%
X31440000Y78740000D03*
%TO.P,MX49,2,2_2*%
%TO.N,Net-(D49-A)*%
X37790000Y81280000D03*
%TD*%
%TO.P,MX35,1,1_1*%
%TO.N,/Column 06*%
X2950000Y97760000D03*
%TO.P,MX35,2,2_2*%
%TO.N,Net-(D35-A)*%
X9300000Y100300000D03*
%TD*%
%TO.P,MX60,1,1_1*%
%TO.N,/Column 06*%
X110090000Y59690000D03*
%TO.P,MX60,2,2_2*%
%TO.N,Net-(D60-A)*%
X116440000Y62230000D03*
%TD*%
%TO.P,MX62,1,1_1*%
%TO.N,/Column 12*%
X150690000Y78740000D03*
%TO.P,MX62,2,2_2*%
%TO.N,Net-(D62-A)*%
X157040000Y81280000D03*
%TD*%
%TO.P,MX31,1,1_1*%
%TO.N,/Column 02*%
X-73220000Y97850000D03*
%TO.P,MX31,2,2_2*%
%TO.N,Net-(D31-A)*%
X-66870000Y100390000D03*
%TD*%
%TO.P,MX48,1,1_1*%
%TO.N,/Column 06*%
X12330000Y78740000D03*
%TO.P,MX48,2,2_2*%
%TO.N,Net-(D48-A)*%
X18680000Y81280000D03*
%TD*%
%TO.P,MX45,1,1_1*%
%TO.N,/Column 03*%
X-44860000Y78740000D03*
%TO.P,MX45,2,2_2*%
%TO.N,Net-(D45-A)*%
X-38510000Y81280000D03*
%TD*%
%TO.P,MX33,1,1_1*%
%TO.N,/Column 04*%
X-35220000Y97800000D03*
%TO.P,MX33,2,2_2*%
%TO.N,Net-(D33-A)*%
X-28870000Y100340000D03*
%TD*%
%TO.P,MX16,1,1_1*%
%TO.N,/Column 01*%
X-97260000Y116840000D03*
%TO.P,MX16,2,2_2*%
%TO.N,Net-(D16-A)*%
X-90910000Y119380000D03*
%TD*%
%TO.P,MX4,1,1_1*%
%TO.N,/Column 03*%
X-69010000Y135890000D03*
%TO.P,MX4,2,2_2*%
%TO.N,Net-(D4-A)*%
X-62660000Y138430000D03*
%TD*%
%TO.P,MX51,1,1_1*%
%TO.N,/Column 09*%
X69670000Y78740000D03*
%TO.P,MX51,2,2_2*%
%TO.N,Net-(D51-A)*%
X76020000Y81280000D03*
%TD*%
%TO.P,MX37,1,1_1*%
%TO.N,/Column 08*%
X41110000Y97820000D03*
%TO.P,MX37,2,2_2*%
%TO.N,Net-(D37-A)*%
X47460000Y100360000D03*
%TD*%
%TO.P,MX43,1,1_1*%
%TO.N,/Column 01*%
X-82850000Y78740000D03*
%TO.P,MX43,2,2_2*%
%TO.N,Net-(D43-A)*%
X-76500000Y81280000D03*
%TD*%
%TO.P,MX44,1,1_1*%
%TO.N,/Column 02*%
X-63910000Y78740000D03*
%TO.P,MX44,2,2_2*%
%TO.N,Net-(D44-A)*%
X-57560000Y81280000D03*
%TD*%
%TO.P,MX28,1,1_1*%
%TO.N,/Column 13*%
X136350000Y116840000D03*
%TO.P,MX28,2,2_2*%
%TO.N,Net-(D28-A)*%
X142700000Y119380000D03*
%TD*%
%TO.P,MX5,1,1_1*%
%TO.N,/Column 04*%
X-49960000Y135890000D03*
%TO.P,MX5,2,2_2*%
%TO.N,Net-(D5-A)*%
X-43610000Y138430000D03*
%TD*%
%TO.P,MX36,1,1_1*%
%TO.N,/Column 07*%
X22010000Y97760000D03*
%TO.P,MX36,2,2_2*%
%TO.N,Net-(D36-A)*%
X28360000Y100300000D03*
%TD*%
%TO.P,MX12,1,1_1*%
%TO.N,/Column 11*%
X83390000Y135890000D03*
%TO.P,MX12,2,2_2*%
%TO.N,Net-(D12-A)*%
X89740000Y138430000D03*
%TD*%
%TO.P,MX55,1,1_1*%
%TO.N,/Column 01*%
X-101850000Y59690000D03*
%TO.P,MX55,2,2_2*%
%TO.N,Net-(D55-A)*%
X-95500000Y62230000D03*
%TD*%
%TO.P,MX26,1,1_1*%
%TO.N,/Column 11*%
X93340000Y116815000D03*
%TO.P,MX26,2,2_2*%
%TO.N,Net-(D26-A)*%
X99690000Y119355000D03*
%TD*%
%TO.P,MX3,1,1_1*%
%TO.N,/Column 02*%
X-88060000Y135890000D03*
%TO.P,MX3,2,2_2*%
%TO.N,Net-(D3-A)*%
X-81710000Y138430000D03*
%TD*%
%TO.P,MX1,1,1_1*%
%TO.N,/Column 00*%
X-126160000Y135890000D03*
%TO.P,MX1,2,2_2*%
%TO.N,Net-(D1-A)*%
X-119810000Y138430000D03*
%TD*%
%TO.P,MX68,1,1_1*%
%TO.N,/Column 09*%
X169740000Y59690000D03*
%TO.P,MX68,2,2_2*%
%TO.N,Net-(D65-A)*%
X176090000Y62230000D03*
%TD*%
D11*
%TO.P,S2,*%
%TO.N,*%
X-121896250Y83185000D03*
X-98083750Y83185000D03*
%TD*%
D10*
%TO.P,MX25,1,1_1*%
%TO.N,/Column 10*%
X74315000Y116765000D03*
%TO.P,MX25,2,2_2*%
%TO.N,Net-(D25-A)*%
X80665000Y119305000D03*
%TD*%
D11*
%TO.P,S3,*%
%TO.N,*%
X111593750Y83185000D03*
X135406250Y83185000D03*
%TD*%
D10*
%TO.P,MX8,1,1_1*%
%TO.N,/Column 07*%
X7190000Y135890000D03*
%TO.P,MX8,2,2_2*%
%TO.N,Net-(D8-A)*%
X13540000Y138430000D03*
%TD*%
%TO.P,MX30,1,1_1*%
%TO.N,/Column 01*%
X-92260000Y97790000D03*
%TO.P,MX30,2,2_2*%
%TO.N,Net-(D30-A)*%
X-85910000Y100330000D03*
%TD*%
%TO.P,MX10,1,1_1*%
%TO.N,/Column 09*%
X45290000Y135890000D03*
%TO.P,MX10,2,2_2*%
%TO.N,Net-(D10-A)*%
X51640000Y138430000D03*
%TD*%
%TO.P,MX66,1,1_1*%
%TO.N,/Column 07*%
X131490000Y59690000D03*
%TO.P,MX66,2,2_2*%
%TO.N,Net-(D61-A)*%
X137840000Y62230000D03*
%TD*%
%TO.P,MX21,1,1_1*%
%TO.N,/Column 06*%
X-1865000Y116840000D03*
%TO.P,MX21,2,2_2*%
%TO.N,Net-(D21-A)*%
X4485000Y119380000D03*
%TD*%
%TO.P,MX34,1,1_1*%
%TO.N,/Column 05*%
X-16160000Y97830000D03*
%TO.P,MX34,2,2_2*%
%TO.N,Net-(D34-A)*%
X-9810000Y100370000D03*
%TD*%
%TO.P,MX6,1,1_1*%
%TO.N,/Column 05*%
X-30910000Y135890000D03*
%TO.P,MX6,2,2_2*%
%TO.N,Net-(D6-A)*%
X-24560000Y138430000D03*
%TD*%
%TO.P,MX56,1,1_1*%
%TO.N,/Column 02*%
X-80380000Y59690000D03*
%TO.P,MX56,2,2_2*%
%TO.N,Net-(D56-A)*%
X-74030000Y62230000D03*
%TD*%
%TO.P,MX53,1,1_1*%
%TO.N,/Column 11*%
X119620000Y78740000D03*
%TO.P,MX53,2,2_2*%
%TO.N,Net-(D53-A)*%
X125970000Y81280000D03*
%TD*%
D12*
%TO.P,D27,1,K_1*%
%TO.N,/ROW 03*%
X125850000Y107950000D03*
D13*
%TO.P,D27,2,A_2*%
%TO.N,Net-(D27-A)*%
X125850000Y118110000D03*
%TD*%
D12*
%TO.P,D32,1,K_1*%
%TO.N,/ROW 02*%
X-40900000Y90200000D03*
D13*
%TO.P,D32,2,A_2*%
%TO.N,Net-(D32-A)*%
X-40900000Y100360000D03*
%TD*%
D12*
%TO.P,D19,1,K_1*%
%TO.N,/ROW 03*%
X-26725000Y108475000D03*
D13*
%TO.P,D19,2,A_2*%
%TO.N,Net-(D19-A)*%
X-26725000Y118635000D03*
%TD*%
D12*
%TO.P,D54,1,K_1*%
%TO.N,/ROW 00*%
X-107550000Y51325000D03*
D13*
%TO.P,D54,2,A_2*%
%TO.N,Net-(D54-A)*%
X-107550000Y61485000D03*
%TD*%
D12*
%TO.P,D23,1,K_1*%
%TO.N,/ROW 03*%
X49450000Y108425000D03*
D13*
%TO.P,D23,2,A_2*%
%TO.N,Net-(D23-A)*%
X49450000Y118585000D03*
%TD*%
D12*
%TO.P,D42,1,K_1*%
%TO.N,/ROW 01*%
X-88475000Y70250000D03*
D13*
%TO.P,D42,2,A_2*%
%TO.N,Net-(D42-A)*%
X-88475000Y80410000D03*
%TD*%
D12*
%TO.P,D25,1,K_1*%
%TO.N,/ROW 03*%
X87600000Y108200000D03*
D13*
%TO.P,D25,2,A_2*%
%TO.N,Net-(D25-A)*%
X87600000Y118360000D03*
%TD*%
D12*
%TO.P,D24,1,K_1*%
%TO.N,/ROW 03*%
X68700000Y108150000D03*
D13*
%TO.P,D24,2,A_2*%
%TO.N,Net-(D24-A)*%
X68700000Y118310000D03*
%TD*%
D12*
%TO.P,D9,1,K_1*%
%TO.N,/ROW 04*%
X39650000Y127220000D03*
D13*
%TO.P,D9,2,A_2*%
%TO.N,Net-(D9-A)*%
X39650000Y137380000D03*
%TD*%
D12*
%TO.P,D40,1,K_1*%
%TO.N,/ROW 02*%
X111650000Y89500000D03*
D13*
%TO.P,D40,2,A_2*%
%TO.N,Net-(D40-A)*%
X111650000Y99660000D03*
%TD*%
D12*
%TO.P,D16,1,K_1*%
%TO.N,/ROW 03*%
X-83900000Y109175000D03*
D13*
%TO.P,D16,2,A_2*%
%TO.N,Net-(D16-A)*%
X-83900000Y119335000D03*
%TD*%
D12*
%TO.P,D21,1,K_1*%
%TO.N,/ROW 03*%
X11525000Y108625000D03*
D13*
%TO.P,D21,2,A_2*%
%TO.N,Net-(D21-A)*%
X11525000Y118785000D03*
%TD*%
D12*
%TO.P,D39,1,K_1*%
%TO.N,/ROW 02*%
X92675000Y89550000D03*
D13*
%TO.P,D39,2,A_2*%
%TO.N,Net-(D39-A)*%
X92675000Y99710000D03*
%TD*%
D12*
%TO.P,D10,1,K_1*%
%TO.N,/ROW 04*%
X58725000Y127320000D03*
D13*
%TO.P,D10,2,A_2*%
%TO.N,Net-(D10-A)*%
X58725000Y137480000D03*
%TD*%
D12*
%TO.P,D60,1,K_1*%
%TO.N,/ROW 00*%
X125775000Y51825000D03*
D13*
%TO.P,D60,2,A_2*%
%TO.N,Net-(D60-A)*%
X125775000Y61985000D03*
%TD*%
D12*
%TO.P,D5,1,K_1*%
%TO.N,/ROW 04*%
X-36650000Y127570000D03*
D13*
%TO.P,D5,2,A_2*%
%TO.N,Net-(D5-A)*%
X-36650000Y137730000D03*
%TD*%
D12*
%TO.P,D45,1,K_1*%
%TO.N,/ROW 01*%
X-31525000Y70575000D03*
D13*
%TO.P,D45,2,A_2*%
%TO.N,Net-(D45-A)*%
X-31525000Y80735000D03*
%TD*%
D12*
%TO.P,D48,1,K_1*%
%TO.N,/ROW 01*%
X25525000Y70675000D03*
D13*
%TO.P,D48,2,A_2*%
%TO.N,Net-(D48-A)*%
X25525000Y80835000D03*
%TD*%
D12*
%TO.P,D35,1,K_1*%
%TO.N,/ROW 02*%
X16325000Y89825000D03*
D13*
%TO.P,D35,2,A_2*%
%TO.N,Net-(D35-A)*%
X16325000Y99985000D03*
%TD*%
D12*
%TO.P,D33,1,K_1*%
%TO.N,/ROW 02*%
X-21850000Y89950000D03*
D13*
%TO.P,D33,2,A_2*%
%TO.N,Net-(D33-A)*%
X-21850000Y100110000D03*
%TD*%
D12*
%TO.P,D28,1,K_1*%
%TO.N,/ROW 03*%
X154400000Y108475000D03*
D13*
%TO.P,D28,2,A_2*%
%TO.N,Net-(D28-A)*%
X154400000Y118635000D03*
%TD*%
D12*
%TO.P,D1,1,K_1*%
%TO.N,/ROW 04*%
X-112875000Y127720000D03*
D13*
%TO.P,D1,2,A_2*%
%TO.N,Net-(D1-A)*%
X-112875000Y137880000D03*
%TD*%
D12*
%TO.P,D56,1,K_1*%
%TO.N,/ROW 00*%
X-64725000Y51450000D03*
D13*
%TO.P,D56,2,A_2*%
%TO.N,Net-(D56-A)*%
X-64725000Y61610000D03*
%TD*%
D12*
%TO.P,D47,1,K_1*%
%TO.N,/ROW 01*%
X6800000Y70450000D03*
D13*
%TO.P,D47,2,A_2*%
%TO.N,Net-(D47-A)*%
X6800000Y80610000D03*
%TD*%
D12*
%TO.P,D17,1,K_1*%
%TO.N,/ROW 03*%
X-64850000Y108270000D03*
D13*
%TO.P,D17,2,A_2*%
%TO.N,Net-(D17-A)*%
X-64850000Y118430000D03*
%TD*%
D12*
%TO.P,D41,1,K_1*%
%TO.N,/ROW 02*%
X154400000Y90025000D03*
D13*
%TO.P,D41,2,A_2*%
%TO.N,Net-(D41-A)*%
X154400000Y100185000D03*
%TD*%
D12*
%TO.P,D3,1,K_1*%
%TO.N,/ROW 04*%
X-74625000Y127495000D03*
D13*
%TO.P,D3,2,A_2*%
%TO.N,Net-(D3-A)*%
X-74625000Y137655000D03*
%TD*%
D12*
%TO.P,D44,1,K_1*%
%TO.N,/ROW 01*%
X-50575000Y70225000D03*
D13*
%TO.P,D44,2,A_2*%
%TO.N,Net-(D44-A)*%
X-50575000Y80385000D03*
%TD*%
D12*
%TO.P,D11,1,K_1*%
%TO.N,/ROW 04*%
X77800000Y127045000D03*
D13*
%TO.P,D11,2,A_2*%
%TO.N,Net-(D11-A)*%
X77800000Y137205000D03*
%TD*%
D12*
%TO.P,D53,1,K_1*%
%TO.N,/ROW 01*%
X142375000Y70900000D03*
D13*
%TO.P,D53,2,A_2*%
%TO.N,Net-(D53-A)*%
X142375000Y81060000D03*
%TD*%
D12*
%TO.P,D36,1,K_1*%
%TO.N,/ROW 02*%
X35400000Y89850000D03*
D13*
%TO.P,D36,2,A_2*%
%TO.N,Net-(D36-A)*%
X35400000Y100010000D03*
%TD*%
D12*
%TO.P,D62,1,K_1*%
%TO.N,/ROW 01*%
X164075000Y71025000D03*
D13*
%TO.P,D62,2,A_2*%
%TO.N,Net-(D62-A)*%
X164075000Y81185000D03*
%TD*%
D12*
%TO.P,D38,1,K_1*%
%TO.N,/ROW 02*%
X73375000Y90125000D03*
D13*
%TO.P,D38,2,A_2*%
%TO.N,Net-(D38-A)*%
X73375000Y100285000D03*
%TD*%
D12*
%TO.P,D50,1,K_1*%
%TO.N,/ROW 01*%
X64025000Y70795000D03*
D13*
%TO.P,D50,2,A_2*%
%TO.N,Net-(D50-A)*%
X64025000Y80955000D03*
%TD*%
D12*
%TO.P,D65,1,K_1*%
%TO.N,/ROW 00*%
X183000000Y52495000D03*
D13*
%TO.P,D65,2,A_2*%
%TO.N,Net-(D65-A)*%
X183000000Y62655000D03*
%TD*%
D12*
%TO.P,D8,1,K_1*%
%TO.N,/ROW 04*%
X20950000Y127120000D03*
D13*
%TO.P,D8,2,A_2*%
%TO.N,Net-(D8-A)*%
X20950000Y137280000D03*
%TD*%
D12*
%TO.P,D26,1,K_1*%
%TO.N,/ROW 03*%
X106775000Y108200000D03*
D13*
%TO.P,D26,2,A_2*%
%TO.N,Net-(D26-A)*%
X106775000Y118360000D03*
%TD*%
D12*
%TO.P,D64,1,K_1*%
%TO.N,/ROW 00*%
X163975000Y52225000D03*
D13*
%TO.P,D64,2,A_2*%
%TO.N,Net-(D64-A)*%
X163975000Y62385000D03*
%TD*%
D12*
%TO.P,D52,1,K_1*%
%TO.N,/ROW 01*%
X102225000Y71175000D03*
D13*
%TO.P,D52,2,A_2*%
%TO.N,Net-(D52-A)*%
X102225000Y81335000D03*
%TD*%
D12*
%TO.P,D18,1,K_1*%
%TO.N,/ROW 03*%
X-45825000Y108645000D03*
D13*
%TO.P,D18,2,A_2*%
%TO.N,Net-(D18-A)*%
X-45825000Y118805000D03*
%TD*%
D12*
%TO.P,D46,1,K_1*%
%TO.N,/ROW 01*%
X-12300000Y70450000D03*
D13*
%TO.P,D46,2,A_2*%
%TO.N,Net-(D46-A)*%
X-12300000Y80610000D03*
%TD*%
D12*
%TO.P,D2,1,K_1*%
%TO.N,/ROW 04*%
X-93875000Y127545000D03*
D13*
%TO.P,D2,2,A_2*%
%TO.N,Net-(D2-A)*%
X-93875000Y137705000D03*
%TD*%
D12*
%TO.P,D15,1,K_1*%
%TO.N,/ROW 03*%
X-103075000Y110025000D03*
D13*
%TO.P,D15,2,A_2*%
%TO.N,Net-(D15-A)*%
X-103075000Y120185000D03*
%TD*%
D12*
%TO.P,D6,1,K_1*%
%TO.N,/ROW 04*%
X-17700000Y127520000D03*
D13*
%TO.P,D6,2,A_2*%
%TO.N,Net-(D6-A)*%
X-17700000Y137680000D03*
%TD*%
D12*
%TO.P,D37,1,K_1*%
%TO.N,/ROW 02*%
X54550000Y89650000D03*
D13*
%TO.P,D37,2,A_2*%
%TO.N,Net-(D37-A)*%
X54550000Y99810000D03*
%TD*%
D12*
%TO.P,D63,1,K_1*%
%TO.N,/ROW 01*%
X183125000Y70470000D03*
D13*
%TO.P,D63,2,A_2*%
%TO.N,Net-(D63-A)*%
X183125000Y80630000D03*
%TD*%
D12*
%TO.P,D13,1,K_1*%
%TO.N,/ROW 04*%
X115775000Y127345000D03*
D13*
%TO.P,D13,2,A_2*%
%TO.N,Net-(D13-A)*%
X115775000Y137505000D03*
%TD*%
D12*
%TO.P,D4,1,K_1*%
%TO.N,/ROW 04*%
X-55600000Y127395000D03*
D13*
%TO.P,D4,2,A_2*%
%TO.N,Net-(D4-A)*%
X-55600000Y137555000D03*
%TD*%
D12*
%TO.P,D29,1,K_1*%
%TO.N,/ROW 02*%
X-97900000Y89925000D03*
D13*
%TO.P,D29,2,A_2*%
%TO.N,Net-(D29-A)*%
X-97900000Y100085000D03*
%TD*%
D12*
%TO.P,D58,1,K_1*%
%TO.N,/ROW 00*%
X77975000Y51925000D03*
D13*
%TO.P,D58,2,A_2*%
%TO.N,Net-(D58-A)*%
X77975000Y62085000D03*
%TD*%
D12*
%TO.P,D57,1,K_1*%
%TO.N,/ROW 00*%
X25125000Y51420000D03*
D13*
%TO.P,D57,2,A_2*%
%TO.N,Net-(D57-A)*%
X25125000Y61580000D03*
%TD*%
D12*
%TO.P,D30,1,K_1*%
%TO.N,/ROW 02*%
X-78950000Y90300000D03*
D13*
%TO.P,D30,2,A_2*%
%TO.N,Net-(D30-A)*%
X-78950000Y100460000D03*
%TD*%
D12*
%TO.P,D59,1,K_1*%
%TO.N,/ROW 00*%
X102100000Y52225000D03*
D13*
%TO.P,D59,2,A_2*%
%TO.N,Net-(D59-A)*%
X102100000Y62385000D03*
%TD*%
D12*
%TO.P,D7,1,K_1*%
%TO.N,/ROW 04*%
X1525000Y127120000D03*
D13*
%TO.P,D7,2,A_2*%
%TO.N,Net-(D7-A)*%
X1525000Y137280000D03*
%TD*%
D12*
%TO.P,D51,1,K_1*%
%TO.N,/ROW 01*%
X83125000Y70800000D03*
D13*
%TO.P,D51,2,A_2*%
%TO.N,Net-(D51-A)*%
X83125000Y80960000D03*
%TD*%
D12*
%TO.P,D55,1,K_1*%
%TO.N,/ROW 00*%
X-88525000Y52025000D03*
D13*
%TO.P,D55,2,A_2*%
%TO.N,Net-(D55-A)*%
X-88525000Y62185000D03*
%TD*%
D12*
%TO.P,D49,1,K_1*%
%TO.N,/ROW 01*%
X44950000Y70575000D03*
D13*
%TO.P,D49,2,A_2*%
%TO.N,Net-(D49-A)*%
X44950000Y80735000D03*
%TD*%
D12*
%TO.P,D31,1,K_1*%
%TO.N,/ROW 02*%
X-59975000Y90075000D03*
D13*
%TO.P,D31,2,A_2*%
%TO.N,Net-(D31-A)*%
X-59975000Y100235000D03*
%TD*%
D12*
%TO.P,D61,1,K_1*%
%TO.N,/ROW 00*%
X145075000Y51550000D03*
D13*
%TO.P,D61,2,A_2*%
%TO.N,Net-(D61-A)*%
X145075000Y61710000D03*
%TD*%
D12*
%TO.P,D43,1,K_1*%
%TO.N,/ROW 01*%
X-69475000Y70145000D03*
D13*
%TO.P,D43,2,A_2*%
%TO.N,Net-(D43-A)*%
X-69475000Y80305000D03*
%TD*%
D12*
%TO.P,D22,1,K_1*%
%TO.N,/ROW 03*%
X30450000Y108975000D03*
D13*
%TO.P,D22,2,A_2*%
%TO.N,Net-(D22-A)*%
X30450000Y119135000D03*
%TD*%
D12*
%TO.P,D14,1,K_1*%
%TO.N,/ROW 04*%
X153825000Y127070000D03*
D13*
%TO.P,D14,2,A_2*%
%TO.N,Net-(D14-A)*%
X153825000Y137230000D03*
%TD*%
D12*
%TO.P,D12,1,K_1*%
%TO.N,/ROW 04*%
X96825000Y127270000D03*
D13*
%TO.P,D12,2,A_2*%
%TO.N,Net-(D12-A)*%
X96825000Y137430000D03*
%TD*%
D12*
%TO.P,D34,1,K_1*%
%TO.N,/ROW 02*%
X-2825000Y89950000D03*
D13*
%TO.P,D34,2,A_2*%
%TO.N,Net-(D34-A)*%
X-2825000Y100110000D03*
%TD*%
D12*
%TO.P,D20,1,K_1*%
%TO.N,/ROW 03*%
X-7700000Y108450000D03*
D13*
%TO.P,D20,2,A_2*%
%TO.N,Net-(D20-A)*%
X-7700000Y118610000D03*
%TD*%
D14*
%TO.N,/ROW 04*%
X164560000Y134252499D03*
%TO.N,/ROW 03*%
X164560000Y131712499D03*
%TO.N,/ROW 02*%
X164560000Y129172499D03*
%TO.N,/ROW 01*%
X164560000Y126632499D03*
%TO.N,/ROW 00*%
X164560000Y124092499D03*
%TD*%
%TO.N,Net-(D23-A)*%
D15*
X42490000Y119430000D02*
X48605000Y119430000D01*
X48605000Y119430000D02*
X49450000Y118585000D01*
%TO.N,Net-(D17-A)*%
X-65800000Y119380000D02*
X-64850000Y118430000D01*
X-71840000Y119380000D02*
X-65800000Y119380000D01*
%TO.N,Net-(D32-A)*%
X-40930000Y100330000D02*
X-40900000Y100360000D01*
X-47910000Y100330000D02*
X-40930000Y100330000D01*
%TO.N,Net-(D15-A)*%
X-114730000Y119380000D02*
X-103880000Y119380000D01*
X-103880000Y119380000D02*
X-103075000Y120185000D01*
%TO.N,Net-(D2-A)*%
X-94600000Y138430000D02*
X-93875000Y137705000D01*
X-100760000Y138430000D02*
X-94600000Y138430000D01*
%TO.N,Net-(D50-A)*%
X56920000Y81280000D02*
X63700000Y81280000D01*
X63700000Y81280000D02*
X64025000Y80955000D01*
%TO.N,Net-(D39-A)*%
X85540000Y100330000D02*
X92055000Y100330000D01*
X92055000Y100330000D02*
X92675000Y99710000D01*
%TO.N,Net-(D57-A)*%
X24475000Y62230000D02*
X25125000Y61580000D01*
X-2500000Y62230000D02*
X24475000Y62230000D01*
%TO.N,Net-(D38-A)*%
X66540000Y100330000D02*
X73330000Y100330000D01*
X73330000Y100330000D02*
X73375000Y100285000D01*
%TO.N,Net-(D14-A)*%
X137460000Y138430000D02*
X138660000Y137230000D01*
X138660000Y137230000D02*
X153825000Y137230000D01*
%TO.N,/ROW 04*%
X-55600000Y127395000D02*
X-36825000Y127395000D01*
X1125000Y127520000D02*
X1525000Y127120000D01*
X77525000Y127320000D02*
X77800000Y127045000D01*
X153825000Y127070000D02*
X161007499Y134252499D01*
X58725000Y127320000D02*
X77525000Y127320000D01*
X-93755000Y127545000D02*
X-93705000Y127495000D01*
X-93705000Y127495000D02*
X-74625000Y127495000D01*
X161007499Y134252499D02*
X164560000Y134252499D01*
X-74625000Y127495000D02*
X-55700000Y127495000D01*
X20950000Y127120000D02*
X39550000Y127120000D01*
X-112875000Y127720000D02*
X-94050000Y127720000D01*
X115700000Y127270000D02*
X115775000Y127345000D01*
X115775000Y127345000D02*
X117440000Y129010000D01*
X1525000Y127120000D02*
X20950000Y127120000D01*
X-17750000Y127570000D02*
X-17700000Y127520000D01*
X77800000Y127045000D02*
X96600000Y127045000D01*
X-36650000Y127570000D02*
X-17750000Y127570000D01*
X117440000Y129010000D02*
X152260000Y129010000D01*
X-94050000Y127720000D02*
X-93875000Y127545000D01*
X96825000Y127270000D02*
X115700000Y127270000D01*
X153825000Y127445000D02*
X153825000Y127070000D01*
X58625000Y127220000D02*
X58725000Y127320000D01*
X96600000Y127045000D02*
X96825000Y127270000D01*
X-55700000Y127495000D02*
X-55600000Y127395000D01*
X152260000Y129010000D02*
X153825000Y127445000D01*
X39650000Y127220000D02*
X58625000Y127220000D01*
X39550000Y127120000D02*
X39650000Y127220000D01*
X-36825000Y127395000D02*
X-36650000Y127570000D01*
X-93875000Y127545000D02*
X-93755000Y127545000D01*
X-17700000Y127520000D02*
X1125000Y127520000D01*
%TO.N,/ROW 03*%
X-65755000Y109175000D02*
X-64850000Y108270000D01*
X48900000Y108975000D02*
X49450000Y108425000D01*
X30450000Y108975000D02*
X48900000Y108975000D01*
X87600000Y108200000D02*
X106775000Y108200000D01*
X-103075000Y110025000D02*
X-84750000Y110025000D01*
X-84750000Y110025000D02*
X-83900000Y109175000D01*
X-26660000Y108450000D02*
X-7700000Y108450000D01*
X125850000Y107950000D02*
X153875000Y107950000D01*
X-46200000Y108270000D02*
X-45825000Y108645000D01*
X157360000Y108480000D02*
X157360000Y125215686D01*
X11350000Y108450000D02*
X11525000Y108625000D01*
X-83900000Y109175000D02*
X-65755000Y109175000D01*
X87375000Y108425000D02*
X87600000Y108200000D01*
X157355000Y108475000D02*
X157360000Y108480000D01*
X154400000Y108475000D02*
X157355000Y108475000D01*
X157360000Y125215686D02*
X163856813Y131712499D01*
X49450000Y108425000D02*
X87375000Y108425000D01*
X106775000Y108200000D02*
X125600000Y108200000D01*
X163856813Y131712499D02*
X164560000Y131712499D01*
X-7700000Y108450000D02*
X11350000Y108450000D01*
X11525000Y108625000D02*
X30100000Y108625000D01*
X-64850000Y108270000D02*
X-46200000Y108270000D01*
X-26725000Y108475000D02*
X-26685000Y108475000D01*
X-45825000Y108645000D02*
X-26895000Y108645000D01*
X-26895000Y108645000D02*
X-26725000Y108475000D01*
X153875000Y107950000D02*
X154400000Y108475000D01*
X-26685000Y108475000D02*
X-26660000Y108450000D01*
X125600000Y108200000D02*
X125850000Y107950000D01*
X30100000Y108625000D02*
X30450000Y108975000D01*
%TO.N,/ROW 02*%
X-2800000Y89950000D02*
X-2675000Y89825000D01*
X152340000Y91460000D02*
X153775000Y90025000D01*
X111650000Y89500000D02*
X113610000Y91460000D01*
X-21850000Y89950000D02*
X-2825000Y89950000D01*
X-60200000Y90300000D02*
X-59975000Y90075000D01*
X92100000Y90125000D02*
X92675000Y89550000D01*
X16345000Y89825000D02*
X16370000Y89850000D01*
X92675000Y89550000D02*
X111600000Y89550000D01*
X161882499Y129172499D02*
X164560000Y129172499D01*
X111600000Y89550000D02*
X111650000Y89500000D01*
X54550000Y89650000D02*
X72900000Y89650000D01*
X54350000Y89850000D02*
X54550000Y89650000D01*
X-59975000Y90075000D02*
X-41025000Y90075000D01*
X73375000Y90125000D02*
X92100000Y90125000D01*
X-2825000Y89950000D02*
X-2800000Y89950000D01*
X-78950000Y90300000D02*
X-60200000Y90300000D01*
X153775000Y90025000D02*
X154400000Y90025000D01*
X-41025000Y90075000D02*
X-40900000Y90200000D01*
X-22100000Y90200000D02*
X-21850000Y89950000D01*
X16370000Y89850000D02*
X35400000Y89850000D01*
X-40900000Y90200000D02*
X-22100000Y90200000D01*
X157760000Y93385000D02*
X157760000Y125050000D01*
X154400000Y90025000D02*
X157760000Y93385000D01*
X35400000Y89850000D02*
X54350000Y89850000D01*
X-97900000Y89925000D02*
X-79325000Y89925000D01*
X157760000Y125050000D02*
X161882499Y129172499D01*
X16325000Y89825000D02*
X16345000Y89825000D01*
X72900000Y89650000D02*
X73375000Y90125000D01*
X-2675000Y89825000D02*
X16325000Y89825000D01*
X-79325000Y89925000D02*
X-78950000Y90300000D01*
X113610000Y91460000D02*
X152340000Y91460000D01*
%TO.N,/ROW 01*%
X83120000Y70795000D02*
X83125000Y70800000D01*
X186980000Y71440000D02*
X186980000Y85270000D01*
X163950000Y70900000D02*
X164075000Y71025000D01*
X182570000Y71025000D02*
X183125000Y70470000D01*
X183125000Y70470000D02*
X186010000Y70470000D01*
X161530000Y92750000D02*
X161530000Y124910000D01*
X-31875000Y70225000D02*
X-31525000Y70575000D01*
X-50575000Y70225000D02*
X-31875000Y70225000D01*
X25525000Y70675000D02*
X44850000Y70675000D01*
X142100000Y71175000D02*
X142375000Y70900000D01*
X164075000Y71025000D02*
X182570000Y71025000D01*
X186980000Y85270000D02*
X182610000Y89640000D01*
X-12425000Y70575000D02*
X-12300000Y70450000D01*
X-69580000Y70250000D02*
X-69475000Y70145000D01*
X164640000Y89640000D02*
X161530000Y92750000D01*
X44950000Y70575000D02*
X45145000Y70575000D01*
X83125000Y70800000D02*
X101850000Y70800000D01*
X102225000Y71175000D02*
X142100000Y71175000D01*
X161530000Y124910000D02*
X163252499Y126632499D01*
X101850000Y70800000D02*
X102225000Y71175000D01*
X-12300000Y70450000D02*
X6800000Y70450000D01*
X7205000Y70675000D02*
X25525000Y70675000D01*
X182610000Y89640000D02*
X164640000Y89640000D01*
X-69475000Y70145000D02*
X-50655000Y70145000D01*
X186010000Y70470000D02*
X186980000Y71440000D01*
X64025000Y70795000D02*
X83120000Y70795000D01*
X-31525000Y70575000D02*
X-12425000Y70575000D01*
X163252499Y126632499D02*
X164560000Y126632499D01*
X44850000Y70675000D02*
X44950000Y70575000D01*
X45145000Y70575000D02*
X45365000Y70795000D01*
X45365000Y70795000D02*
X64025000Y70795000D01*
X-88475000Y70250000D02*
X-69580000Y70250000D01*
X6800000Y70450000D02*
X6890000Y70360000D01*
X142375000Y70900000D02*
X163950000Y70900000D01*
X-50655000Y70145000D02*
X-50575000Y70225000D01*
X6890000Y70360000D02*
X7205000Y70675000D01*
%TO.N,/ROW 00*%
X163985000Y52225000D02*
X164255000Y52495000D01*
X77975000Y51925000D02*
X101800000Y51925000D01*
X145075000Y51550000D02*
X163300000Y51550000D01*
X24150000Y51420000D02*
X25125000Y51420000D01*
X22450000Y53120000D02*
X24150000Y51420000D01*
X25125000Y51420000D02*
X77470000Y51420000D01*
X125375000Y52225000D02*
X125775000Y51825000D01*
X188450000Y53000000D02*
X188310000Y53140000D01*
X102100000Y52225000D02*
X125375000Y52225000D01*
X125775000Y51825000D02*
X144800000Y51825000D01*
X187945000Y52495000D02*
X188450000Y53000000D01*
X77470000Y51420000D02*
X77975000Y51925000D01*
X167080000Y93140000D02*
X163660000Y96560000D01*
X163660000Y123192499D02*
X164560000Y124092499D01*
X-64480000Y51450000D02*
X-62760000Y53170000D01*
X-88525000Y52025000D02*
X-65300000Y52025000D01*
X-62760000Y53170000D02*
X-62710000Y53120000D01*
X163975000Y52225000D02*
X163985000Y52225000D01*
X-62710000Y53120000D02*
X22450000Y53120000D01*
X188310000Y90920000D02*
X186090000Y93140000D01*
X163660000Y96560000D02*
X163660000Y123192499D01*
X144800000Y51825000D02*
X145075000Y51550000D01*
X188310000Y53140000D02*
X188310000Y90920000D01*
X101800000Y51925000D02*
X102100000Y52225000D01*
X163300000Y51550000D02*
X163975000Y52225000D01*
X-64725000Y51450000D02*
X-64480000Y51450000D01*
X186090000Y93140000D02*
X167080000Y93140000D01*
X164255000Y52495000D02*
X183000000Y52495000D01*
X-107550000Y51325000D02*
X-89225000Y51325000D01*
X-89225000Y51325000D02*
X-88525000Y52025000D01*
X-65300000Y52025000D02*
X-64725000Y51450000D01*
X183000000Y52495000D02*
X187945000Y52495000D01*
%TO.N,Net-(D24-A)*%
X67630000Y119380000D02*
X68700000Y118310000D01*
X61565000Y119380000D02*
X67630000Y119380000D01*
%TO.N,Net-(D13-A)*%
X108790000Y138430000D02*
X114850000Y138430000D01*
X114850000Y138430000D02*
X115775000Y137505000D01*
%TO.N,Net-(D54-A)*%
X-108295000Y62230000D02*
X-107550000Y61485000D01*
X-116920000Y62230000D02*
X-108295000Y62230000D01*
%TO.N,Net-(D27-A)*%
X118790000Y119355000D02*
X120035000Y118110000D01*
X120035000Y118110000D02*
X125850000Y118110000D01*
%TO.N,Net-(D42-A)*%
X-106610000Y80410000D02*
X-88475000Y80410000D01*
X-107480000Y81280000D02*
X-106610000Y80410000D01*
%TO.N,Net-(D46-A)*%
X-12970000Y81280000D02*
X-12300000Y80610000D01*
X-19400000Y81280000D02*
X-12970000Y81280000D01*
%TO.N,Net-(D64-A)*%
X163820000Y62230000D02*
X163975000Y62385000D01*
X157030000Y62230000D02*
X163820000Y62230000D01*
%TO.N,Net-(D19-A)*%
X-27420000Y119330000D02*
X-26725000Y118635000D01*
X-33735000Y119330000D02*
X-27420000Y119330000D01*
%TO.N,Net-(D58-A)*%
X68765000Y62205000D02*
X77855000Y62205000D01*
X77855000Y62205000D02*
X77975000Y62085000D01*
%TO.N,Net-(D41-A)*%
X154110000Y99180000D02*
X155280000Y100350000D01*
X135600000Y100330000D02*
X136750000Y99180000D01*
X153395000Y99180000D02*
X154400000Y100185000D01*
X136750000Y99180000D02*
X154110000Y99180000D01*
X136750000Y99180000D02*
X153395000Y99180000D01*
%TO.N,Net-(D29-A)*%
X-112190000Y100330000D02*
X-98145000Y100330000D01*
X-98145000Y100330000D02*
X-97900000Y100085000D01*
%TO.N,Net-(D40-A)*%
X110980000Y100330000D02*
X111650000Y99660000D01*
X104680000Y100330000D02*
X110980000Y100330000D01*
%TO.N,Net-(D9-A)*%
X32590000Y138430000D02*
X38600000Y138430000D01*
X38600000Y138430000D02*
X39650000Y137380000D01*
%TO.N,Net-(D11-A)*%
X71915000Y137205000D02*
X77800000Y137205000D01*
X70690000Y138430000D02*
X71915000Y137205000D01*
X70950000Y138430000D02*
X72175000Y137205000D01*
X70690000Y138430000D02*
X70950000Y138430000D01*
X72175000Y137205000D02*
X77800000Y137205000D01*
%TO.N,Net-(D63-A)*%
X176030000Y81280000D02*
X182475000Y81280000D01*
X182475000Y81280000D02*
X183125000Y80630000D01*
%TO.N,Net-(D18-A)*%
X-52760000Y119355000D02*
X-46375000Y119355000D01*
X-46375000Y119355000D02*
X-45825000Y118805000D01*
%TO.N,Net-(D20-A)*%
X-14635000Y119380000D02*
X-8470000Y119380000D01*
X-8470000Y119380000D02*
X-7700000Y118610000D01*
%TO.N,Net-(D59-A)*%
X92650000Y62205000D02*
X101920000Y62205000D01*
X101920000Y62205000D02*
X102100000Y62385000D01*
%TO.N,Net-(D47-A)*%
X6130000Y81280000D02*
X6800000Y80610000D01*
X-360000Y81280000D02*
X6130000Y81280000D01*
%TO.N,Net-(D52-A)*%
X95160000Y81280000D02*
X102170000Y81280000D01*
X102170000Y81280000D02*
X102225000Y81335000D01*
%TO.N,Net-(D22-A)*%
X30155000Y119430000D02*
X30450000Y119135000D01*
X23540000Y119430000D02*
X30155000Y119430000D01*
%TO.N,Net-(D7-A)*%
X-4360000Y137280000D02*
X1525000Y137280000D01*
X-5510000Y138430000D02*
X-4360000Y137280000D01*
%TO.N,Net-(D49-A)*%
X44405000Y81280000D02*
X44950000Y80735000D01*
X37790000Y81280000D02*
X44405000Y81280000D01*
%TO.N,Net-(D35-A)*%
X9300000Y100300000D02*
X16010000Y100300000D01*
X16010000Y100300000D02*
X16325000Y99985000D01*
%TO.N,Net-(D60-A)*%
X125530000Y62230000D02*
X125775000Y61985000D01*
X116440000Y62230000D02*
X125530000Y62230000D01*
%TO.N,Net-(D62-A)*%
X163980000Y81280000D02*
X164075000Y81185000D01*
X157040000Y81280000D02*
X163980000Y81280000D01*
%TO.N,Net-(D31-A)*%
X-60130000Y100390000D02*
X-59975000Y100235000D01*
X-66870000Y100390000D02*
X-60130000Y100390000D01*
%TO.N,Net-(D48-A)*%
X25080000Y81280000D02*
X25525000Y80835000D01*
X18680000Y81280000D02*
X25080000Y81280000D01*
%TO.N,Net-(D45-A)*%
X-38510000Y81280000D02*
X-32070000Y81280000D01*
X-32070000Y81280000D02*
X-31525000Y80735000D01*
%TO.N,Net-(D33-A)*%
X-28870000Y100340000D02*
X-22080000Y100340000D01*
X-22080000Y100340000D02*
X-21850000Y100110000D01*
%TO.N,Net-(D16-A)*%
X-90910000Y119380000D02*
X-83945000Y119380000D01*
X-83945000Y119380000D02*
X-83900000Y119335000D01*
%TO.N,Net-(D4-A)*%
X-62660000Y138430000D02*
X-56475000Y138430000D01*
X-56475000Y138430000D02*
X-55600000Y137555000D01*
%TO.N,Net-(D51-A)*%
X82805000Y81280000D02*
X83125000Y80960000D01*
X76020000Y81280000D02*
X82805000Y81280000D01*
%TO.N,Net-(D37-A)*%
X54000000Y100360000D02*
X54550000Y99810000D01*
X47460000Y100360000D02*
X54000000Y100360000D01*
%TO.N,Net-(D43-A)*%
X-70450000Y81280000D02*
X-69475000Y80305000D01*
X-76500000Y81280000D02*
X-70450000Y81280000D01*
%TO.N,Net-(D44-A)*%
X-51470000Y81280000D02*
X-50575000Y80385000D01*
X-57560000Y81280000D02*
X-51470000Y81280000D01*
%TO.N,Net-(D28-A)*%
X153655000Y119380000D02*
X154400000Y118635000D01*
X142700000Y119380000D02*
X153655000Y119380000D01*
%TO.N,Net-(D5-A)*%
X-37350000Y138430000D02*
X-36650000Y137730000D01*
X-43610000Y138430000D02*
X-37350000Y138430000D01*
%TO.N,Net-(D36-A)*%
X35110000Y100300000D02*
X35400000Y100010000D01*
X28360000Y100300000D02*
X35110000Y100300000D01*
%TO.N,Net-(D12-A)*%
X89740000Y138430000D02*
X95825000Y138430000D01*
X95825000Y138430000D02*
X96825000Y137430000D01*
%TO.N,Net-(D55-A)*%
X-88570000Y62230000D02*
X-88525000Y62185000D01*
X-95500000Y62230000D02*
X-88570000Y62230000D01*
%TO.N,Net-(D26-A)*%
X99690000Y119355000D02*
X105780000Y119355000D01*
X105780000Y119355000D02*
X106775000Y118360000D01*
%TO.N,Net-(D3-A)*%
X-81710000Y138430000D02*
X-75400000Y138430000D01*
X-75400000Y138430000D02*
X-74625000Y137655000D01*
%TO.N,Net-(D1-A)*%
X-119810000Y138430000D02*
X-113425000Y138430000D01*
X-113425000Y138430000D02*
X-112875000Y137880000D01*
%TO.N,Net-(D65-A)*%
X182575000Y62230000D02*
X183000000Y62655000D01*
X176090000Y62230000D02*
X182575000Y62230000D01*
%TO.N,Net-(D25-A)*%
X86655000Y119305000D02*
X87600000Y118360000D01*
X80665000Y119305000D02*
X86655000Y119305000D01*
%TO.N,Net-(D8-A)*%
X14690000Y137280000D02*
X20950000Y137280000D01*
X13540000Y138430000D02*
X14690000Y137280000D01*
%TO.N,Net-(D30-A)*%
X-79080000Y100330000D02*
X-78950000Y100460000D01*
X-85910000Y100330000D02*
X-79080000Y100330000D01*
%TO.N,Net-(D10-A)*%
X51640000Y138430000D02*
X57775000Y138430000D01*
X57775000Y138430000D02*
X58725000Y137480000D01*
%TO.N,Net-(D61-A)*%
X137840000Y62230000D02*
X144555000Y62230000D01*
X144555000Y62230000D02*
X145075000Y61710000D01*
%TO.N,Net-(D21-A)*%
X4485000Y119380000D02*
X10930000Y119380000D01*
X10930000Y119380000D02*
X11525000Y118785000D01*
%TO.N,Net-(D34-A)*%
X-9810000Y100370000D02*
X-3085000Y100370000D01*
X-3085000Y100370000D02*
X-2825000Y100110000D01*
%TO.N,Net-(D6-A)*%
X-24560000Y138430000D02*
X-18450000Y138430000D01*
X-18450000Y138430000D02*
X-17700000Y137680000D01*
%TO.N,Net-(D56-A)*%
X-74030000Y62230000D02*
X-65345000Y62230000D01*
X-65345000Y62230000D02*
X-64725000Y61610000D01*
%TO.N,Net-(D53-A)*%
X125970000Y81280000D02*
X127120000Y80130000D01*
X127120000Y80130000D02*
X141445000Y80130000D01*
X141445000Y80130000D02*
X142375000Y81060000D01*
%TD*%
M02*
