%TF.GenerationSoftware,KiCad,Pcbnew,10.0.5*%
%TF.CreationDate,2026-09-30T02:45:47+05:30*%
%TF.ProjectId,pcb-design,7063622d-6465-4736-9967-6e2e6b696361,rev?*%
%TF.SameCoordinates,Original*%
%TF.FileFunction,Soldermask,Bot*%
%TF.FilePolarity,Negative*%
%FSLAX46Y46*%
G04 Gerber Fmt 4.6, Leading zero omitted, Abs format (unit mm)*
G04 Created by KiCad (PCBNEW 10.0.5) date 2026-09-30 02:45:47*
%MOMM*%
%LPD*%
G01*
G04 APERTURE LIST*
G04 Aperture macros list*
%AMRoundRect*
0 Rectangle with rounded corners*
0 $1 Rounding radius*
0 $2 $3 $4 $5 $6 $7 $8 $9 X,Y pos of 4 corners*
0 Add a 4 corners polygon primitive as box body*
4,1,4,$2,$3,$4,$5,$6,$7,$8,$9,$2,$3,0*
0 Add four circle primitives for the rounded corners*
1,1,$1+$1,$2,$3*
1,1,$1+$1,$4,$5*
1,1,$1+$1,$6,$7*
1,1,$1+$1,$8,$9*
0 Add four rect primitives between the rounded corners*
20,1,$1+$1,$2,$3,$4,$5,0*
20,1,$1+$1,$4,$5,$6,$7,0*
20,1,$1+$1,$6,$7,$8,$9,0*
20,1,$1+$1,$8,$9,$2,$3,0*%
G04 Aperture macros list end*
%ADD10C,2.200000*%
%ADD11C,1.750000*%
%ADD12C,3.987800*%
%ADD13C,2.300000*%
%ADD14C,4.000000*%
%ADD15RoundRect,0.250000X0.550000X-0.550000X0.550000X0.550000X-0.550000X0.550000X-0.550000X-0.550000X0*%
%ADD16C,1.600000*%
G04 APERTURE END LIST*
D10*
%TO.C,H2*%
X35560000Y52860000D03*
%TD*%
D11*
%TO.C,MX23*%
X34870000Y114350000D03*
D12*
X39950000Y114350000D03*
D11*
X45030000Y114350000D03*
D13*
X36140000Y116890000D03*
X42490000Y119430000D03*
%TD*%
D14*
%TO.C,S5*%
X-55220000Y64040000D03*
D12*
X-55220000Y48800000D03*
D14*
X44792500Y64040000D03*
D12*
X44792500Y48800000D03*
%TD*%
D11*
%TO.C,MX17*%
X-79460000Y114300000D03*
D12*
X-74380000Y114300000D03*
D11*
X-69300000Y114300000D03*
D13*
X-78190000Y116840000D03*
X-71840000Y119380000D03*
%TD*%
D10*
%TO.C,H4*%
X-127760000Y43450000D03*
%TD*%
D11*
%TO.C,MX32*%
X-55530000Y95250000D03*
D12*
X-50450000Y95250000D03*
D11*
X-45370000Y95250000D03*
D13*
X-54260000Y97790000D03*
X-47910000Y100330000D03*
%TD*%
D11*
%TO.C,MX15*%
X-122350000Y114300000D03*
D12*
X-117270000Y114300000D03*
D11*
X-112190000Y114300000D03*
D13*
X-121080000Y116840000D03*
X-114730000Y119380000D03*
%TD*%
D11*
%TO.C,MX2*%
X-108380000Y133350000D03*
D12*
X-103300000Y133350000D03*
D11*
X-98220000Y133350000D03*
D13*
X-107110000Y135890000D03*
X-100760000Y138430000D03*
%TD*%
D11*
%TO.C,MX50*%
X49300000Y76200000D03*
D12*
X54380000Y76200000D03*
D11*
X59460000Y76200000D03*
D13*
X50570000Y78740000D03*
X56920000Y81280000D03*
%TD*%
D11*
%TO.C,MX39*%
X77920000Y95250000D03*
D12*
X83000000Y95250000D03*
D11*
X88080000Y95250000D03*
D13*
X79190000Y97790000D03*
X85540000Y100330000D03*
%TD*%
D11*
%TO.C,MX57*%
X-10120000Y57150000D03*
D12*
X-5040000Y57150000D03*
D11*
X40000Y57150000D03*
D13*
X-8850000Y59690000D03*
X-2500000Y62230000D03*
%TD*%
D11*
%TO.C,MX38*%
X58920000Y95250000D03*
D12*
X64000000Y95250000D03*
D11*
X69080000Y95250000D03*
D13*
X60190000Y97790000D03*
X66540000Y100330000D03*
%TD*%
D11*
%TO.C,MX14*%
X129840000Y133350000D03*
D12*
X134920000Y133350000D03*
D11*
X140000000Y133350000D03*
D13*
X131110000Y135890000D03*
X137460000Y138430000D03*
%TD*%
D10*
%TO.C,H6*%
X-131880000Y142370000D03*
%TD*%
D11*
%TO.C,MX24*%
X53945000Y114300000D03*
D12*
X59025000Y114300000D03*
D11*
X64105000Y114300000D03*
D13*
X55215000Y116840000D03*
X61565000Y119380000D03*
%TD*%
D11*
%TO.C,MX13*%
X101170000Y133350000D03*
D12*
X106250000Y133350000D03*
D11*
X111330000Y133350000D03*
D13*
X102440000Y135890000D03*
X108790000Y138430000D03*
%TD*%
D11*
%TO.C,MX54*%
X-124540000Y57150000D03*
D12*
X-119460000Y57150000D03*
D11*
X-114380000Y57150000D03*
D13*
X-123270000Y59690000D03*
X-116920000Y62230000D03*
%TD*%
D11*
%TO.C,MX27*%
X111170000Y114275000D03*
D12*
X116250000Y114275000D03*
D11*
X121330000Y114275000D03*
D13*
X112440000Y116815000D03*
X118790000Y119355000D03*
%TD*%
D14*
%TO.C,S1*%
X122973750Y140335000D03*
D12*
X122973750Y125095000D03*
D14*
X146786250Y140335000D03*
D12*
X146786250Y125095000D03*
%TD*%
D11*
%TO.C,MX42*%
X-115100000Y76200000D03*
D12*
X-110020000Y76200000D03*
D11*
X-104940000Y76200000D03*
D13*
X-113830000Y78740000D03*
X-107480000Y81280000D03*
%TD*%
D11*
%TO.C,MX46*%
X-27020000Y76200000D03*
D12*
X-21940000Y76200000D03*
D11*
X-16860000Y76200000D03*
D13*
X-25750000Y78740000D03*
X-19400000Y81280000D03*
%TD*%
D11*
%TO.C,MX67*%
X149410000Y57150000D03*
D12*
X154490000Y57150000D03*
D11*
X159570000Y57150000D03*
D13*
X150680000Y59690000D03*
X157030000Y62230000D03*
%TD*%
D11*
%TO.C,MX19*%
X-41355000Y114250000D03*
D12*
X-36275000Y114250000D03*
D11*
X-31195000Y114250000D03*
D13*
X-40085000Y116790000D03*
X-33735000Y119330000D03*
%TD*%
D11*
%TO.C,MX58*%
X61145000Y57125000D03*
D12*
X66225000Y57125000D03*
D11*
X71305000Y57125000D03*
D13*
X62415000Y59665000D03*
X68765000Y62205000D03*
%TD*%
D11*
%TO.C,MX41*%
X127980000Y95250000D03*
D12*
X133060000Y95250000D03*
D11*
X138140000Y95250000D03*
D13*
X129250000Y97790000D03*
X135600000Y100330000D03*
%TD*%
D11*
%TO.C,MX29*%
X-119810000Y95250000D03*
D12*
X-114730000Y95250000D03*
D11*
X-109650000Y95250000D03*
D13*
X-118540000Y97790000D03*
X-112190000Y100330000D03*
%TD*%
D11*
%TO.C,MX40*%
X97060000Y95250000D03*
D12*
X102140000Y95250000D03*
D11*
X107220000Y95250000D03*
D13*
X98330000Y97790000D03*
X104680000Y100330000D03*
%TD*%
D11*
%TO.C,MX9*%
X24970000Y133350000D03*
D12*
X30050000Y133350000D03*
D11*
X35130000Y133350000D03*
D13*
X26240000Y135890000D03*
X32590000Y138430000D03*
%TD*%
D11*
%TO.C,MX11*%
X63070000Y133350000D03*
D12*
X68150000Y133350000D03*
D11*
X73230000Y133350000D03*
D13*
X64340000Y135890000D03*
X70690000Y138430000D03*
%TD*%
D11*
%TO.C,MX63*%
X168410000Y76200000D03*
D12*
X173490000Y76200000D03*
D11*
X178570000Y76200000D03*
D13*
X169680000Y78740000D03*
X176030000Y81280000D03*
%TD*%
D10*
%TO.C,H1*%
X1540000Y142450000D03*
%TD*%
D11*
%TO.C,MX18*%
X-60380000Y114275000D03*
D12*
X-55300000Y114275000D03*
D11*
X-50220000Y114275000D03*
D13*
X-59110000Y116815000D03*
X-52760000Y119355000D03*
%TD*%
D14*
%TO.C,S4*%
X121153750Y102235000D03*
D12*
X121153750Y86995000D03*
D14*
X144966250Y102235000D03*
D12*
X144966250Y86995000D03*
%TD*%
D11*
%TO.C,MX20*%
X-22255000Y114300000D03*
D12*
X-17175000Y114300000D03*
D11*
X-12095000Y114300000D03*
D13*
X-20985000Y116840000D03*
X-14635000Y119380000D03*
%TD*%
D11*
%TO.C,MX59*%
X85030000Y57125000D03*
D12*
X90110000Y57125000D03*
D11*
X95190000Y57125000D03*
D13*
X86300000Y59665000D03*
X92650000Y62205000D03*
%TD*%
D11*
%TO.C,MX47*%
X-7980000Y76200000D03*
D12*
X-2900000Y76200000D03*
D11*
X2180000Y76200000D03*
D13*
X-6710000Y78740000D03*
X-360000Y81280000D03*
%TD*%
D11*
%TO.C,MX52*%
X87540000Y76200000D03*
D12*
X92620000Y76200000D03*
D11*
X97700000Y76200000D03*
D13*
X88810000Y78740000D03*
X95160000Y81280000D03*
%TD*%
D11*
%TO.C,MX22*%
X15920000Y114350000D03*
D12*
X21000000Y114350000D03*
D11*
X26080000Y114350000D03*
D13*
X17190000Y116890000D03*
X23540000Y119430000D03*
%TD*%
D11*
%TO.C,MX7*%
X-13130000Y133350000D03*
D12*
X-8050000Y133350000D03*
D11*
X-2970000Y133350000D03*
D13*
X-11860000Y135890000D03*
X-5510000Y138430000D03*
%TD*%
D11*
%TO.C,MX49*%
X30170000Y76200000D03*
D12*
X35250000Y76200000D03*
D11*
X40330000Y76200000D03*
D13*
X31440000Y78740000D03*
X37790000Y81280000D03*
%TD*%
D11*
%TO.C,MX35*%
X1680000Y95220000D03*
D12*
X6760000Y95220000D03*
D11*
X11840000Y95220000D03*
D13*
X2950000Y97760000D03*
X9300000Y100300000D03*
%TD*%
D11*
%TO.C,MX60*%
X108820000Y57150000D03*
D12*
X113900000Y57150000D03*
D11*
X118980000Y57150000D03*
D13*
X110090000Y59690000D03*
X116440000Y62230000D03*
%TD*%
D11*
%TO.C,MX62*%
X149420000Y76200000D03*
D12*
X154500000Y76200000D03*
D11*
X159580000Y76200000D03*
D13*
X150690000Y78740000D03*
X157040000Y81280000D03*
%TD*%
D11*
%TO.C,MX31*%
X-74490000Y95310000D03*
D12*
X-69410000Y95310000D03*
D11*
X-64330000Y95310000D03*
D13*
X-73220000Y97850000D03*
X-66870000Y100390000D03*
%TD*%
D11*
%TO.C,MX48*%
X11060000Y76200000D03*
D12*
X16140000Y76200000D03*
D11*
X21220000Y76200000D03*
D13*
X12330000Y78740000D03*
X18680000Y81280000D03*
%TD*%
D11*
%TO.C,MX45*%
X-46130000Y76200000D03*
D12*
X-41050000Y76200000D03*
D11*
X-35970000Y76200000D03*
D13*
X-44860000Y78740000D03*
X-38510000Y81280000D03*
%TD*%
D11*
%TO.C,MX33*%
X-36490000Y95260000D03*
D12*
X-31410000Y95260000D03*
D11*
X-26330000Y95260000D03*
D13*
X-35220000Y97800000D03*
X-28870000Y100340000D03*
%TD*%
D11*
%TO.C,MX16*%
X-98530000Y114300000D03*
D12*
X-93450000Y114300000D03*
D11*
X-88370000Y114300000D03*
D13*
X-97260000Y116840000D03*
X-90910000Y119380000D03*
%TD*%
D11*
%TO.C,MX4*%
X-70280000Y133350000D03*
D12*
X-65200000Y133350000D03*
D11*
X-60120000Y133350000D03*
D13*
X-69010000Y135890000D03*
X-62660000Y138430000D03*
%TD*%
D11*
%TO.C,MX51*%
X68400000Y76200000D03*
D12*
X73480000Y76200000D03*
D11*
X78560000Y76200000D03*
D13*
X69670000Y78740000D03*
X76020000Y81280000D03*
%TD*%
D11*
%TO.C,MX37*%
X39840000Y95280000D03*
D12*
X44920000Y95280000D03*
D11*
X50000000Y95280000D03*
D13*
X41110000Y97820000D03*
X47460000Y100360000D03*
%TD*%
D11*
%TO.C,MX43*%
X-84120000Y76200000D03*
D12*
X-79040000Y76200000D03*
D11*
X-73960000Y76200000D03*
D13*
X-82850000Y78740000D03*
X-76500000Y81280000D03*
%TD*%
D11*
%TO.C,MX44*%
X-65180000Y76200000D03*
D12*
X-60100000Y76200000D03*
D11*
X-55020000Y76200000D03*
D13*
X-63910000Y78740000D03*
X-57560000Y81280000D03*
%TD*%
D11*
%TO.C,MX28*%
X135080000Y114300000D03*
D12*
X140160000Y114300000D03*
D11*
X145240000Y114300000D03*
D13*
X136350000Y116840000D03*
X142700000Y119380000D03*
%TD*%
D11*
%TO.C,MX5*%
X-51230000Y133350000D03*
D12*
X-46150000Y133350000D03*
D11*
X-41070000Y133350000D03*
D13*
X-49960000Y135890000D03*
X-43610000Y138430000D03*
%TD*%
D11*
%TO.C,MX36*%
X20740000Y95220000D03*
D12*
X25820000Y95220000D03*
D11*
X30900000Y95220000D03*
D13*
X22010000Y97760000D03*
X28360000Y100300000D03*
%TD*%
D11*
%TO.C,MX12*%
X82120000Y133350000D03*
D12*
X87200000Y133350000D03*
D11*
X92280000Y133350000D03*
D13*
X83390000Y135890000D03*
X89740000Y138430000D03*
%TD*%
D11*
%TO.C,MX55*%
X-103120000Y57150000D03*
D12*
X-98040000Y57150000D03*
D11*
X-92960000Y57150000D03*
D13*
X-101850000Y59690000D03*
X-95500000Y62230000D03*
%TD*%
D11*
%TO.C,MX26*%
X92070000Y114275000D03*
D12*
X97150000Y114275000D03*
D11*
X102230000Y114275000D03*
D13*
X93340000Y116815000D03*
X99690000Y119355000D03*
%TD*%
D11*
%TO.C,MX3*%
X-89330000Y133350000D03*
D12*
X-84250000Y133350000D03*
D11*
X-79170000Y133350000D03*
D13*
X-88060000Y135890000D03*
X-81710000Y138430000D03*
%TD*%
D11*
%TO.C,MX1*%
X-127430000Y133350000D03*
D12*
X-122350000Y133350000D03*
D11*
X-117270000Y133350000D03*
D13*
X-126160000Y135890000D03*
X-119810000Y138430000D03*
%TD*%
D11*
%TO.C,MX68*%
X168470000Y57150000D03*
D12*
X173550000Y57150000D03*
D11*
X178630000Y57150000D03*
D13*
X169740000Y59690000D03*
X176090000Y62230000D03*
%TD*%
D14*
%TO.C,S2*%
X-121896250Y83185000D03*
D12*
X-121896250Y67945000D03*
D14*
X-98083750Y83185000D03*
D12*
X-98083750Y67945000D03*
%TD*%
D10*
%TO.C,H3*%
X13430000Y56710000D03*
%TD*%
D11*
%TO.C,MX25*%
X73045000Y114225000D03*
D12*
X78125000Y114225000D03*
D11*
X83205000Y114225000D03*
D13*
X74315000Y116765000D03*
X80665000Y119305000D03*
%TD*%
D14*
%TO.C,S3*%
X111593750Y83185000D03*
D12*
X111593750Y67945000D03*
D14*
X135406250Y83185000D03*
D12*
X135406250Y67945000D03*
%TD*%
D11*
%TO.C,MX8*%
X5920000Y133350000D03*
D12*
X11000000Y133350000D03*
D11*
X16080000Y133350000D03*
D13*
X7190000Y135890000D03*
X13540000Y138430000D03*
%TD*%
D11*
%TO.C,MX30*%
X-93530000Y95250000D03*
D12*
X-88450000Y95250000D03*
D11*
X-83370000Y95250000D03*
D13*
X-92260000Y97790000D03*
X-85910000Y100330000D03*
%TD*%
D11*
%TO.C,MX10*%
X44020000Y133350000D03*
D12*
X49100000Y133350000D03*
D11*
X54180000Y133350000D03*
D13*
X45290000Y135890000D03*
X51640000Y138430000D03*
%TD*%
D11*
%TO.C,MX66*%
X130220000Y57150000D03*
D12*
X135300000Y57150000D03*
D11*
X140380000Y57150000D03*
D13*
X131490000Y59690000D03*
X137840000Y62230000D03*
%TD*%
D11*
%TO.C,MX21*%
X-3135000Y114300000D03*
D12*
X1945000Y114300000D03*
D11*
X7025000Y114300000D03*
D13*
X-1865000Y116840000D03*
X4485000Y119380000D03*
%TD*%
D11*
%TO.C,MX34*%
X-17430000Y95290000D03*
D12*
X-12350000Y95290000D03*
D11*
X-7270000Y95290000D03*
D13*
X-16160000Y97830000D03*
X-9810000Y100370000D03*
%TD*%
D11*
%TO.C,MX6*%
X-32180000Y133350000D03*
D12*
X-27100000Y133350000D03*
D11*
X-22020000Y133350000D03*
D13*
X-30910000Y135890000D03*
X-24560000Y138430000D03*
%TD*%
D11*
%TO.C,MX56*%
X-81650000Y57150000D03*
D12*
X-76570000Y57150000D03*
D11*
X-71490000Y57150000D03*
D13*
X-80380000Y59690000D03*
X-74030000Y62230000D03*
%TD*%
D10*
%TO.C,H5*%
X171390000Y107810000D03*
%TD*%
D11*
%TO.C,MX53*%
X118350000Y76200000D03*
D12*
X123430000Y76200000D03*
D11*
X128510000Y76200000D03*
D13*
X119620000Y78740000D03*
X125970000Y81280000D03*
%TD*%
D15*
%TO.C,D27*%
X125850000Y107950000D03*
D16*
X125850000Y118110000D03*
%TD*%
D15*
%TO.C,D32*%
X-40900000Y90200000D03*
D16*
X-40900000Y100360000D03*
%TD*%
D15*
%TO.C,D19*%
X-26725000Y108475000D03*
D16*
X-26725000Y118635000D03*
%TD*%
D15*
%TO.C,D54*%
X-107550000Y51325000D03*
D16*
X-107550000Y61485000D03*
%TD*%
D15*
%TO.C,D23*%
X49450000Y108425000D03*
D16*
X49450000Y118585000D03*
%TD*%
D15*
%TO.C,D42*%
X-88475000Y70250000D03*
D16*
X-88475000Y80410000D03*
%TD*%
D15*
%TO.C,D25*%
X87600000Y108200000D03*
D16*
X87600000Y118360000D03*
%TD*%
D15*
%TO.C,D24*%
X68700000Y108150000D03*
D16*
X68700000Y118310000D03*
%TD*%
D15*
%TO.C,D9*%
X39650000Y127220000D03*
D16*
X39650000Y137380000D03*
%TD*%
D15*
%TO.C,D40*%
X111650000Y89500000D03*
D16*
X111650000Y99660000D03*
%TD*%
D15*
%TO.C,D16*%
X-83900000Y109175000D03*
D16*
X-83900000Y119335000D03*
%TD*%
D15*
%TO.C,D21*%
X11525000Y108625000D03*
D16*
X11525000Y118785000D03*
%TD*%
D15*
%TO.C,D39*%
X92675000Y89550000D03*
D16*
X92675000Y99710000D03*
%TD*%
D15*
%TO.C,D10*%
X58725000Y127320000D03*
D16*
X58725000Y137480000D03*
%TD*%
D15*
%TO.C,D60*%
X125775000Y51825000D03*
D16*
X125775000Y61985000D03*
%TD*%
D15*
%TO.C,D5*%
X-36650000Y127570000D03*
D16*
X-36650000Y137730000D03*
%TD*%
D15*
%TO.C,D45*%
X-31525000Y70575000D03*
D16*
X-31525000Y80735000D03*
%TD*%
D15*
%TO.C,D48*%
X25525000Y70675000D03*
D16*
X25525000Y80835000D03*
%TD*%
D15*
%TO.C,D35*%
X16325000Y89825000D03*
D16*
X16325000Y99985000D03*
%TD*%
D15*
%TO.C,D33*%
X-21850000Y89950000D03*
D16*
X-21850000Y100110000D03*
%TD*%
D15*
%TO.C,D28*%
X154400000Y108475000D03*
D16*
X154400000Y118635000D03*
%TD*%
D15*
%TO.C,D1*%
X-112875000Y127720000D03*
D16*
X-112875000Y137880000D03*
%TD*%
D15*
%TO.C,D56*%
X-64725000Y51450000D03*
D16*
X-64725000Y61610000D03*
%TD*%
D15*
%TO.C,D47*%
X6800000Y70450000D03*
D16*
X6800000Y80610000D03*
%TD*%
D15*
%TO.C,D17*%
X-64850000Y108270000D03*
D16*
X-64850000Y118430000D03*
%TD*%
D15*
%TO.C,D41*%
X154400000Y90025000D03*
D16*
X154400000Y100185000D03*
%TD*%
D15*
%TO.C,D3*%
X-74625000Y127495000D03*
D16*
X-74625000Y137655000D03*
%TD*%
D15*
%TO.C,D44*%
X-50575000Y70225000D03*
D16*
X-50575000Y80385000D03*
%TD*%
D15*
%TO.C,D11*%
X77800000Y127045000D03*
D16*
X77800000Y137205000D03*
%TD*%
D15*
%TO.C,D53*%
X142375000Y70900000D03*
D16*
X142375000Y81060000D03*
%TD*%
D15*
%TO.C,D36*%
X35400000Y89850000D03*
D16*
X35400000Y100010000D03*
%TD*%
D15*
%TO.C,D62*%
X164075000Y71025000D03*
D16*
X164075000Y81185000D03*
%TD*%
D15*
%TO.C,D38*%
X73375000Y90125000D03*
D16*
X73375000Y100285000D03*
%TD*%
D15*
%TO.C,D50*%
X64025000Y70795000D03*
D16*
X64025000Y80955000D03*
%TD*%
D15*
%TO.C,D65*%
X183000000Y52495000D03*
D16*
X183000000Y62655000D03*
%TD*%
D15*
%TO.C,D8*%
X20950000Y127120000D03*
D16*
X20950000Y137280000D03*
%TD*%
D15*
%TO.C,D26*%
X106775000Y108200000D03*
D16*
X106775000Y118360000D03*
%TD*%
D15*
%TO.C,D64*%
X163975000Y52225000D03*
D16*
X163975000Y62385000D03*
%TD*%
D15*
%TO.C,D52*%
X102225000Y71175000D03*
D16*
X102225000Y81335000D03*
%TD*%
D15*
%TO.C,D18*%
X-45825000Y108645000D03*
D16*
X-45825000Y118805000D03*
%TD*%
D15*
%TO.C,D46*%
X-12300000Y70450000D03*
D16*
X-12300000Y80610000D03*
%TD*%
D15*
%TO.C,D2*%
X-93875000Y127545000D03*
D16*
X-93875000Y137705000D03*
%TD*%
D15*
%TO.C,D15*%
X-103075000Y110025000D03*
D16*
X-103075000Y120185000D03*
%TD*%
D15*
%TO.C,D6*%
X-17700000Y127520000D03*
D16*
X-17700000Y137680000D03*
%TD*%
D15*
%TO.C,D37*%
X54550000Y89650000D03*
D16*
X54550000Y99810000D03*
%TD*%
D15*
%TO.C,D63*%
X183125000Y70470000D03*
D16*
X183125000Y80630000D03*
%TD*%
D15*
%TO.C,D13*%
X115775000Y127345000D03*
D16*
X115775000Y137505000D03*
%TD*%
D15*
%TO.C,D4*%
X-55600000Y127395000D03*
D16*
X-55600000Y137555000D03*
%TD*%
D15*
%TO.C,D29*%
X-97900000Y89925000D03*
D16*
X-97900000Y100085000D03*
%TD*%
D15*
%TO.C,D58*%
X77975000Y51925000D03*
D16*
X77975000Y62085000D03*
%TD*%
D15*
%TO.C,D57*%
X25125000Y51420000D03*
D16*
X25125000Y61580000D03*
%TD*%
D15*
%TO.C,D30*%
X-78950000Y90300000D03*
D16*
X-78950000Y100460000D03*
%TD*%
D15*
%TO.C,D59*%
X102100000Y52225000D03*
D16*
X102100000Y62385000D03*
%TD*%
D15*
%TO.C,D7*%
X1525000Y127120000D03*
D16*
X1525000Y137280000D03*
%TD*%
D15*
%TO.C,D51*%
X83125000Y70800000D03*
D16*
X83125000Y80960000D03*
%TD*%
D15*
%TO.C,D55*%
X-88525000Y52025000D03*
D16*
X-88525000Y62185000D03*
%TD*%
D15*
%TO.C,D49*%
X44950000Y70575000D03*
D16*
X44950000Y80735000D03*
%TD*%
D15*
%TO.C,D31*%
X-59975000Y90075000D03*
D16*
X-59975000Y100235000D03*
%TD*%
D15*
%TO.C,D61*%
X145075000Y51550000D03*
D16*
X145075000Y61710000D03*
%TD*%
D15*
%TO.C,D43*%
X-69475000Y70145000D03*
D16*
X-69475000Y80305000D03*
%TD*%
D15*
%TO.C,D22*%
X30450000Y108975000D03*
D16*
X30450000Y119135000D03*
%TD*%
D15*
%TO.C,D14*%
X153825000Y127070000D03*
D16*
X153825000Y137230000D03*
%TD*%
D15*
%TO.C,D12*%
X96825000Y127270000D03*
D16*
X96825000Y137430000D03*
%TD*%
D15*
%TO.C,D34*%
X-2825000Y89950000D03*
D16*
X-2825000Y100110000D03*
%TD*%
D15*
%TO.C,D20*%
X-7700000Y108450000D03*
D16*
X-7700000Y118610000D03*
%TD*%
M02*
