M48
; DRILL file KiCad 10.0.5 date 2026-09-30T02:45:53
; FORMAT={-:-/ absolute / metric / decimal}
; #@! TF.CreationDate,2026-09-30T02:45:53+05:30
; #@! TF.GenerationSoftware,Kicad,Pcbnew,10.0.5
; #@! TF.FileFunction,NonPlated,1,2,NPTH
FMAT,2
METRIC
; #@! TA.AperFunction,NonPlated,NPTH,ComponentDrill
T1C1.750
; #@! TA.AperFunction,NonPlated,NPTH,ComponentDrill
T2C2.200
; #@! TA.AperFunction,NonPlated,NPTH,ComponentDrill
T3C3.988
%
G90
G05
T1
X-127.43Y133.35
X-124.54Y57.15
X-122.35Y114.3
X-119.81Y95.25
X-117.27Y133.35
X-115.1Y76.2
X-114.38Y57.15
X-112.19Y114.3
X-109.65Y95.25
X-108.38Y133.35
X-104.94Y76.2
X-103.12Y57.15
X-98.53Y114.3
X-98.22Y133.35
X-93.53Y95.25
X-92.96Y57.15
X-89.33Y133.35
X-88.37Y114.3
X-84.12Y76.2
X-83.37Y95.25
X-81.65Y57.15
X-79.46Y114.3
X-79.17Y133.35
X-74.49Y95.31
X-73.96Y76.2
X-71.49Y57.15
X-70.28Y133.35
X-69.3Y114.3
X-65.18Y76.2
X-64.33Y95.31
X-60.38Y114.275
X-60.12Y133.35
X-55.53Y95.25
X-55.02Y76.2
X-51.23Y133.35
X-50.22Y114.275
X-46.13Y76.2
X-45.37Y95.25
X-41.355Y114.25
X-41.07Y133.35
X-36.49Y95.26
X-35.97Y76.2
X-32.18Y133.35
X-31.195Y114.25
X-27.02Y76.2
X-26.33Y95.26
X-22.255Y114.3
X-22.02Y133.35
X-17.43Y95.29
X-16.86Y76.2
X-13.13Y133.35
X-12.095Y114.3
X-10.12Y57.15
X-7.98Y76.2
X-7.27Y95.29
X-3.135Y114.3
X-2.97Y133.35
X0.04Y57.15
X1.68Y95.22
X2.18Y76.2
X5.92Y133.35
X7.025Y114.3
X11.06Y76.2
X11.84Y95.22
X15.92Y114.35
X16.08Y133.35
X20.74Y95.22
X21.22Y76.2
X24.97Y133.35
X26.08Y114.35
X30.17Y76.2
X30.9Y95.22
X34.87Y114.35
X35.13Y133.35
X39.84Y95.28
X40.33Y76.2
X44.02Y133.35
X45.03Y114.35
X49.3Y76.2
X50.0Y95.28
X53.945Y114.3
X54.18Y133.35
X58.92Y95.25
X59.46Y76.2
X61.145Y57.125
X63.07Y133.35
X64.105Y114.3
X68.4Y76.2
X69.08Y95.25
X71.305Y57.125
X73.045Y114.225
X73.23Y133.35
X77.92Y95.25
X78.56Y76.2
X82.12Y133.35
X83.205Y114.225
X85.03Y57.125
X87.54Y76.2
X88.08Y95.25
X92.07Y114.275
X92.28Y133.35
X95.19Y57.125
X97.06Y95.25
X97.7Y76.2
X101.17Y133.35
X102.23Y114.275
X107.22Y95.25
X108.82Y57.15
X111.17Y114.275
X111.33Y133.35
X118.35Y76.2
X118.98Y57.15
X121.33Y114.275
X127.98Y95.25
X128.51Y76.2
X129.84Y133.35
X130.22Y57.15
X135.08Y114.3
X138.14Y95.25
X140.0Y133.35
X140.38Y57.15
X145.24Y114.3
X149.41Y57.15
X149.42Y76.2
X159.57Y57.15
X159.58Y76.2
X168.41Y76.2
X168.47Y57.15
X178.57Y76.2
X178.63Y57.15
T2
X-131.88Y142.37
X-127.76Y43.45
X1.54Y142.45
X13.43Y56.71
X35.56Y52.86
X171.39Y107.81
T3
X-122.35Y133.35
X-121.896Y67.945
X-119.46Y57.15
X-117.27Y114.3
X-114.73Y95.25
X-110.02Y76.2
X-103.3Y133.35
X-98.084Y67.945
X-98.04Y57.15
X-93.45Y114.3
X-88.45Y95.25
X-84.25Y133.35
X-79.04Y76.2
X-76.57Y57.15
X-74.38Y114.3
X-69.41Y95.31
X-65.2Y133.35
X-60.1Y76.2
X-55.3Y114.275
X-55.22Y48.8
X-50.45Y95.25
X-46.15Y133.35
X-41.05Y76.2
X-36.275Y114.25
X-31.41Y95.26
X-27.1Y133.35
X-21.94Y76.2
X-17.175Y114.3
X-12.35Y95.29
X-8.05Y133.35
X-5.04Y57.15
X-2.9Y76.2
X1.945Y114.3
X6.76Y95.22
X11.0Y133.35
X16.14Y76.2
X21.0Y114.35
X25.82Y95.22
X30.05Y133.35
X35.25Y76.2
X39.95Y114.35
X44.792Y48.8
X44.92Y95.28
X49.1Y133.35
X54.38Y76.2
X59.025Y114.3
X64.0Y95.25
X66.225Y57.125
X68.15Y133.35
X73.48Y76.2
X78.125Y114.225
X83.0Y95.25
X87.2Y133.35
X90.11Y57.125
X92.62Y76.2
X97.15Y114.275
X102.14Y95.25
X106.25Y133.35
X111.594Y67.945
X113.9Y57.15
X116.25Y114.275
X121.154Y86.995
X122.974Y125.095
X123.43Y76.2
X133.06Y95.25
X134.92Y133.35
X135.3Y57.15
X135.406Y67.945
X140.16Y114.3
X144.966Y86.995
X146.786Y125.095
X154.49Y57.15
X154.5Y76.2
X173.49Y76.2
X173.55Y57.15
M30
