M48
; DRILL file KiCad 10.0.5 date 2026-09-30T02:45:53
; FORMAT={-:-/ absolute / metric / decimal}
; #@! TF.CreationDate,2026-09-30T02:45:53+05:30
; #@! TF.GenerationSoftware,Kicad,Pcbnew,10.0.5
; #@! TF.FileFunction,Plated,1,2,PTH
FMAT,2
METRIC
; #@! TA.AperFunction,Plated,PTH,ViaDrill
T1C0.300
; #@! TA.AperFunction,Plated,PTH,ComponentDrill
T2C0.800
; #@! TA.AperFunction,Plated,PTH,ComponentDrill
T3C1.524
; #@! TA.AperFunction,Plated,PTH,ComponentDrill
T4C3.048
%
G90
G05
T1
X164.56Y134.252
X164.56Y131.712
X164.56Y129.172
X164.56Y126.632
X164.56Y124.092
T2
X-112.875Y137.88
X-112.875Y127.72
X-107.55Y61.485
X-107.55Y51.325
X-103.075Y120.185
X-103.075Y110.025
X-97.9Y100.085
X-97.9Y89.925
X-93.875Y137.705
X-93.875Y127.545
X-88.525Y62.185
X-88.525Y52.025
X-88.475Y80.41
X-88.475Y70.25
X-83.9Y119.335
X-83.9Y109.175
X-78.95Y100.46
X-78.95Y90.3
X-74.625Y137.655
X-74.625Y127.495
X-69.475Y80.305
X-69.475Y70.145
X-64.85Y118.43
X-64.85Y108.27
X-64.725Y61.61
X-64.725Y51.45
X-59.975Y100.235
X-59.975Y90.075
X-55.6Y137.555
X-55.6Y127.395
X-50.575Y80.385
X-50.575Y70.225
X-45.825Y118.805
X-45.825Y108.645
X-40.9Y100.36
X-40.9Y90.2
X-36.65Y137.73
X-36.65Y127.57
X-31.525Y80.735
X-31.525Y70.575
X-26.725Y118.635
X-26.725Y108.475
X-21.85Y100.11
X-21.85Y89.95
X-17.7Y137.68
X-17.7Y127.52
X-12.3Y80.61
X-12.3Y70.45
X-7.7Y118.61
X-7.7Y108.45
X-2.825Y100.11
X-2.825Y89.95
X1.525Y137.28
X1.525Y127.12
X6.8Y80.61
X6.8Y70.45
X11.525Y118.785
X11.525Y108.625
X16.325Y99.985
X16.325Y89.825
X20.95Y137.28
X20.95Y127.12
X25.125Y61.58
X25.125Y51.42
X25.525Y80.835
X25.525Y70.675
X30.45Y119.135
X30.45Y108.975
X35.4Y100.01
X35.4Y89.85
X39.65Y137.38
X39.65Y127.22
X44.95Y80.735
X44.95Y70.575
X49.45Y118.585
X49.45Y108.425
X54.55Y99.81
X54.55Y89.65
X58.725Y137.48
X58.725Y127.32
X64.025Y80.955
X64.025Y70.795
X68.7Y118.31
X68.7Y108.15
X73.375Y100.285
X73.375Y90.125
X77.8Y137.205
X77.8Y127.045
X77.975Y62.085
X77.975Y51.925
X83.125Y80.96
X83.125Y70.8
X87.6Y118.36
X87.6Y108.2
X92.675Y99.71
X92.675Y89.55
X96.825Y137.43
X96.825Y127.27
X102.1Y62.385
X102.1Y52.225
X102.225Y81.335
X102.225Y71.175
X106.775Y118.36
X106.775Y108.2
X111.65Y99.66
X111.65Y89.5
X115.775Y137.505
X115.775Y127.345
X125.775Y61.985
X125.775Y51.825
X125.85Y118.11
X125.85Y107.95
X142.375Y81.06
X142.375Y70.9
X145.075Y61.71
X145.075Y51.55
X153.825Y137.23
X153.825Y127.07
X154.4Y118.635
X154.4Y108.475
X154.4Y100.185
X154.4Y90.025
X163.975Y62.385
X163.975Y52.225
X164.075Y81.185
X164.075Y71.025
X183.0Y62.655
X183.0Y52.495
X183.125Y80.63
X183.125Y70.47
T3
X-126.16Y135.89
X-123.27Y59.69
X-121.08Y116.84
X-119.81Y138.43
X-118.54Y97.79
X-116.92Y62.23
X-114.73Y119.38
X-113.83Y78.74
X-112.19Y100.33
X-107.48Y81.28
X-107.11Y135.89
X-101.85Y59.69
X-100.76Y138.43
X-97.26Y116.84
X-95.5Y62.23
X-92.26Y97.79
X-90.91Y119.38
X-88.06Y135.89
X-85.91Y100.33
X-82.85Y78.74
X-81.71Y138.43
X-80.38Y59.69
X-78.19Y116.84
X-76.5Y81.28
X-74.03Y62.23
X-73.22Y97.85
X-71.84Y119.38
X-69.01Y135.89
X-66.87Y100.39
X-63.91Y78.74
X-62.66Y138.43
X-59.11Y116.815
X-57.56Y81.28
X-54.26Y97.79
X-52.76Y119.355
X-49.96Y135.89
X-47.91Y100.33
X-44.86Y78.74
X-43.61Y138.43
X-40.085Y116.79
X-38.51Y81.28
X-35.22Y97.8
X-33.735Y119.33
X-30.91Y135.89
X-28.87Y100.34
X-25.75Y78.74
X-24.56Y138.43
X-20.985Y116.84
X-19.4Y81.28
X-16.16Y97.83
X-14.635Y119.38
X-11.86Y135.89
X-9.81Y100.37
X-8.85Y59.69
X-6.71Y78.74
X-5.51Y138.43
X-2.5Y62.23
X-1.865Y116.84
X-0.36Y81.28
X2.95Y97.76
X4.485Y119.38
X7.19Y135.89
X9.3Y100.3
X12.33Y78.74
X13.54Y138.43
X17.19Y116.89
X18.68Y81.28
X22.01Y97.76
X23.54Y119.43
X26.24Y135.89
X28.36Y100.3
X31.44Y78.74
X32.59Y138.43
X36.14Y116.89
X37.79Y81.28
X41.11Y97.82
X42.49Y119.43
X45.29Y135.89
X47.46Y100.36
X50.57Y78.74
X51.64Y138.43
X55.215Y116.84
X56.92Y81.28
X60.19Y97.79
X61.565Y119.38
X62.415Y59.665
X64.34Y135.89
X66.54Y100.33
X68.765Y62.205
X69.67Y78.74
X70.69Y138.43
X74.315Y116.765
X76.02Y81.28
X79.19Y97.79
X80.665Y119.305
X83.39Y135.89
X85.54Y100.33
X86.3Y59.665
X88.81Y78.74
X89.74Y138.43
X92.65Y62.205
X93.34Y116.815
X95.16Y81.28
X98.33Y97.79
X99.69Y119.355
X102.44Y135.89
X104.68Y100.33
X108.79Y138.43
X110.09Y59.69
X112.44Y116.815
X116.44Y62.23
X118.79Y119.355
X119.62Y78.74
X125.97Y81.28
X129.25Y97.79
X131.11Y135.89
X131.49Y59.69
X135.6Y100.33
X136.35Y116.84
X137.46Y138.43
X137.84Y62.23
X142.7Y119.38
X150.68Y59.69
X150.69Y78.74
X157.03Y62.23
X157.04Y81.28
X169.68Y78.74
X169.74Y59.69
X176.03Y81.28
X176.09Y62.23
T4
X-121.896Y83.185
X-98.084Y83.185
X-55.22Y64.04
X44.792Y64.04
X111.594Y83.185
X121.154Y102.235
X122.974Y140.335
X135.406Y83.185
X144.966Y102.235
X146.786Y140.335
M30
